# xmcd CD database file
#
# Track frame offsets:
#	150
#	10747
#	22612
#	35295
#	51352
#	65117
#	76447
#	90579
#	105250
#	118625
#	132395
#	144610
#	158817
#	173192
#	192397
#	205909
#	218137
#	230842
#	244762
#	256602
#
# Disc length: 3603 seconds
#
# Revision: 0
# Processed by: cddbd v1.5PL3 Copyright (c) Steve Scherf et al.
# Submitted via: CDex 1.51
#
DISCID=0e0e1114
DTITLE=Dizzy Gillespie - Night In Tunisia
DYEAR=1999
DGENRE=Jazz
TTITLE0=I'm Be Boppin Too
TTITLE1=In The Land Of Oo-Bla-Dee
TTITLE2=Good Bait
TTITLE3=Lover, Come Back To Me
TTITLE4=You Go To My Head
TTITLE5=Jump-Did-Le-Ba'
TTITLE6=Manteca
TTITLE7=Stay On It
TTITLE8=Blue'n' Boogie
TTITLE9=Oop Bop Sh'Bam
TTITLE10=That' Earl Brother
TTITLE11=Emanon
TTITLE12=Guarachi Guaro
TTITLE13=Duff Capers
TTITLE14=Smoky Hollw Jump
TTITLE15=Groovin' High
TTITLE16=Dizzy Atmosphere
TTITLE17=Night In Tunisia
TTITLE18=Anthropology
TTITLE19=Katy (Dizzier And Dizzier)
EXTD=YEAR: 1999
EXTT0=
EXTT1=
EXTT2=
EXTT3=
EXTT4=
EXTT5=
EXTT6=
EXTT7=
EXTT8=
EXTT9=
EXTT10=
EXTT11=
EXTT12=
EXTT13=
EXTT14=
EXTT15=
EXTT16=
EXTT17=
EXTT18=
EXTT19=
PLAYORDER=
